<?xml version="1.0" encoding="utf-8"?>
<!-- Generator: Adobe Illustrator 19.0.0, SVG Export Plug-In . SVG Version: 6.00 Build 0)  -->
<svg version="1.1" id="Layer_1" xmlns="http://www.w3.org/2000/svg" xmlns:xlink="http://www.w3.org/1999/xlink" x="0px" y="0px"
	 width="155.469px" height="154.688px" viewBox="0 0 155.469 154.688" style="enable-background:new 0 0 155.469 154.688;"
	 xml:space="preserve">
<style type="text/css">
	.st0{fill:#1DA1F2;}
	.st1{font-family:'ArialRoundedMTBold';}
	.st2{font-size:78px;}
</style>
<g id="XMLID_1_">
	<path id="XMLID_106_" class="st0" d="M139.266,7.719c4.4,0,8,3.6,8,8v123.063c0,4.4-3.6,8-8,8H16.203c-4.4,0-8-3.6-8-8V15.719
		c0-4.4,3.6-8,8-8H139.266 M139.266,3.719H16.203c-6.617,0-12,5.383-12,12v123.063c0,6.617,5.383,12,12,12h123.063
		c6.617,0,12-5.383,12-12V15.719C151.266,9.102,145.882,3.719,139.266,3.719L139.266,3.719z"/>
</g>
<text id="XMLID_2_" transform="matrix(1 0 0 1 36.2776 102.7195)" class="st0 st1 st2">pr</text>
</svg>
